<svg width="850" height="120" viewBox="0 0 1209 178" fill="none" xmlns="http://www.w3.org/2000/svg">
    <path
        d="M72.1543 79.5V54H97.1543V126H72.1543V100.5H31.1543V126H6.1543V54H31.1543V79.5H72.1543ZM153.705 64C162.238 64 169.205 65.0333 174.605 67.1C180.072 69.1667 184.138 72.5 186.805 77.1C189.538 81.6333 190.938 87.7 191.005 95.3V126H168.005V118C163.005 121.067 157.472 123.333 151.405 124.8C145.405 126.267 139.572 127 133.905 127C125.438 127 118.705 125.5 113.705 122.5C108.705 119.5 106.205 114.633 106.205 107.9C106.205 100.433 109.505 95.1667 116.105 92.1C122.705 88.9667 130.905 87.4 140.705 87.4C149.172 87.4 158.272 88.4 168.005 90.4C167.738 86.5333 166.005 83.8333 162.805 82.3C159.672 80.7667 155.205 80 149.405 80C144.138 80 138.772 80.4 133.305 81.2C127.905 81.9333 121.572 83.1333 114.305 84.8L111.105 69.1C126.372 65.7 140.572 64 153.705 64ZM141.805 111C147.272 111 156.005 110 168.005 108V103.4C158.672 102.067 150.705 101.4 144.105 101.4C139.038 101.4 135.438 101.767 133.305 102.5C131.238 103.233 130.205 104.5 130.205 106.3C130.205 108.033 131.072 109.267 132.805 110C134.538 110.667 137.538 111 141.805 111ZM249.164 64C251.898 64 254.398 64.2333 256.664 64.7C258.931 65.1667 261.298 65.9333 263.764 67V87C260.564 85.8667 257.831 85.1 255.564 84.7C253.298 84.2333 250.864 84 248.264 84C244.131 84 240.098 84.9 236.164 86.7C232.231 88.5 228.364 91.8 224.564 96.6V126H201.564V66H224.564V79C227.631 73.6667 231.131 69.8333 235.064 67.5C239.064 65.1667 243.764 64 249.164 64ZM293.779 105.9C293.779 107.633 294.246 109 295.179 110C296.179 111 297.946 111.767 300.479 112.3C303.079 112.767 306.746 113 311.479 113C315.879 113 319.179 112.833 321.379 112.5C323.646 112.1 325.179 111.533 325.979 110.8C326.779 110.067 327.179 109.033 327.179 107.7C327.179 106.233 326.679 105.2 325.679 104.6C324.746 103.933 323.146 103.467 320.879 103.2C318.613 102.867 314.479 102.5 308.479 102.1C299.079 101.433 291.846 100.6 286.779 99.6C281.713 98.5333 277.846 96.8333 275.179 94.5C272.579 92.1 271.279 88.6333 271.279 84.1C271.279 76.6333 274.779 71.4333 281.779 68.5C288.779 65.5 298.246 64 310.179 64C321.713 64 330.979 65.5667 337.979 68.7C344.979 71.8333 348.713 77 349.179 84.2H325.179C325.179 81.9333 323.946 80.3333 321.479 79.4C319.013 78.4667 315.079 78 309.679 78C304.413 78 300.679 78.3667 298.479 79.1C296.346 79.8333 295.279 80.9667 295.279 82.5C295.279 83.6333 295.713 84.5 296.579 85.1C297.446 85.6333 299.046 86.0667 301.379 86.4C303.779 86.7333 307.813 87.1333 313.479 87.6C323.346 88.4667 330.679 89.3667 335.479 90.3C340.279 91.1667 344.079 92.8333 346.879 95.3C349.746 97.7667 351.179 101.533 351.179 106.6C351.179 112.2 349.579 116.567 346.379 119.7C343.246 122.833 338.879 125 333.279 126.2C327.679 127.4 320.746 128 312.479 128C298.746 128 288.179 126.333 280.779 123C273.446 119.6 269.779 113.9 269.779 105.9H293.779ZM417.558 64C437.892 64 448.058 73.9667 448.058 93.9V126H425.058V102.5C425.058 95.7 423.658 90.7667 420.858 87.7C418.058 84.5667 413.192 83 406.258 83C398.792 83 393.058 84.6333 389.058 87.9C385.125 91.1667 383.158 96.0333 383.158 102.5V126H360.158V46H383.158V80C387.158 74.9333 391.892 71 397.358 68.2C402.892 65.4 409.625 64 417.558 64ZM460.061 60V46H483.061V60H460.061ZM460.061 126V66H483.061V126H460.061ZM551.157 83H526.657V99.4C526.657 102.467 527.357 104.833 528.757 106.5C530.157 108.167 532.523 109 535.857 109C538.457 109 540.723 108.867 542.657 108.6C544.657 108.333 547.49 107.8 551.157 107V125.5C543.823 127.167 536.923 128 530.457 128C512.59 128 503.657 121.1 503.657 107.3V83H491.557V66H503.657V55L526.657 49V66H551.157V83ZM685.1 54V75H654.6V126H629.6V75H599.1V54H685.1ZM731.564 111C736.898 111 740.931 110.467 743.664 109.4C746.464 108.267 748.398 106.633 749.464 104.5H771.964C769.898 112.233 765.531 118.1 758.864 122.1C752.264 126.033 742.864 128 730.664 128C716.931 128 706.231 125.267 698.564 119.8C690.898 114.333 687.064 106.4 687.064 96C687.064 89.0667 688.864 83.2333 692.464 78.5C696.064 73.7 701.064 70.1 707.464 67.7C713.864 65.2333 721.298 64 729.764 64C743.031 64 753.464 67 761.064 73C768.664 79 772.464 87.9333 772.464 99.8H710.364C711.098 103.933 713.198 106.833 716.664 108.5C720.198 110.167 725.164 111 731.564 111ZM729.764 79C724.698 79 720.631 79.7333 717.564 81.2C714.498 82.6667 712.364 85.0667 711.164 88.4H748.664C747.398 85.0667 745.198 82.6667 742.064 81.2C738.998 79.7333 734.898 79 729.764 79ZM882.816 110.4L901.416 66H924.116L899.016 126H867.016L848.316 86.9L829.516 126H797.516L772.416 66H795.116L813.716 110.4L834.816 66H861.716L882.816 110.4ZM973.627 64C982.16 64 989.127 65.0333 994.527 67.1C999.994 69.1667 1004.06 72.5 1006.73 77.1C1009.46 81.6333 1010.86 87.7 1010.93 95.3V126H987.927V118C982.927 121.067 977.394 123.333 971.327 124.8C965.327 126.267 959.494 127 953.827 127C945.36 127 938.627 125.5 933.627 122.5C928.627 119.5 926.127 114.633 926.127 107.9C926.127 100.433 929.427 95.1667 936.027 92.1C942.627 88.9667 950.827 87.4 960.627 87.4C969.094 87.4 978.194 88.4 987.927 90.4C987.66 86.5333 985.927 83.8333 982.727 82.3C979.594 80.7667 975.127 80 969.327 80C964.06 80 958.694 80.4 953.227 81.2C947.827 81.9333 941.494 83.1333 934.227 84.8L931.027 69.1C946.294 65.7 960.494 64 973.627 64ZM961.727 111C967.194 111 975.927 110 987.927 108V103.4C978.594 102.067 970.627 101.4 964.027 101.4C958.96 101.4 955.36 101.767 953.227 102.5C951.16 103.233 950.127 104.5 950.127 106.3C950.127 108.033 950.994 109.267 952.727 110C954.46 110.667 957.46 111 961.727 111ZM1076.55 83H1052.05V99.4C1052.05 102.467 1052.75 104.833 1054.15 106.5C1055.55 108.167 1057.91 109 1061.25 109C1063.85 109 1066.11 108.867 1068.05 108.6C1070.05 108.333 1072.88 107.8 1076.55 107V125.5C1069.21 127.167 1062.31 128 1055.85 128C1037.98 128 1029.05 121.1 1029.05 107.3V83H1016.95V66H1029.05V55L1052.05 49V66H1076.55V83ZM1086.53 60V46H1109.53V60H1086.53ZM1086.53 126V66H1109.53V126H1086.53ZM1166.5 64C1175.03 64 1182 65.0333 1187.4 67.1C1192.86 69.1667 1196.93 72.5 1199.6 77.1C1202.33 81.6333 1203.73 87.7 1203.8 95.3V126H1180.8V118C1175.8 121.067 1170.26 123.333 1164.2 124.8C1158.2 126.267 1152.36 127 1146.7 127C1138.23 127 1131.5 125.5 1126.5 122.5C1121.5 119.5 1119 114.633 1119 107.9C1119 100.433 1122.3 95.1667 1128.9 92.1C1135.5 88.9667 1143.7 87.4 1153.5 87.4C1161.96 87.4 1171.06 88.4 1180.8 90.4C1180.53 86.5333 1178.8 83.8333 1175.6 82.3C1172.46 80.7667 1168 80 1162.2 80C1156.93 80 1151.56 80.4 1146.1 81.2C1140.7 81.9333 1134.36 83.1333 1127.1 84.8L1123.9 69.1C1139.16 65.7 1153.36 64 1166.5 64ZM1154.6 111C1160.06 111 1168.8 110 1180.8 108V103.4C1171.46 102.067 1163.5 101.4 1156.9 101.4C1151.83 101.4 1148.23 101.767 1146.1 102.5C1144.03 103.233 1143 104.5 1143 106.3C1143 108.033 1143.86 109.267 1145.6 110C1147.33 110.667 1150.33 111 1154.6 111Z"
        fill="#FFF3C9" />
    <mask id="path-2-outside-1_59_7" maskUnits="userSpaceOnUse" x="112" y="10" width="226" height="45" fill="black">
        <rect fill="white" x="112" y="10" width="226" height="45" />
        <path
            d="M140.167 24.4V14.2H150.167V43H140.167V32.8H123.767V43H113.767V14.2H123.767V24.4H140.167ZM171.978 37C174.111 37 175.725 36.7867 176.818 36.36C177.938 35.9067 178.711 35.2533 179.138 34.4H188.138C187.311 37.4933 185.565 39.84 182.898 41.44C180.258 43.0133 176.498 43.8 171.618 43.8C166.125 43.8 161.845 42.7067 158.778 40.52C155.711 38.3333 154.178 35.16 154.178 31C154.178 28.2267 154.898 25.8933 156.338 24C157.778 22.08 159.778 20.64 162.338 19.68C164.898 18.6933 167.871 18.2 171.258 18.2C176.565 18.2 180.738 19.4 183.778 21.8C186.818 24.2 188.338 27.7733 188.338 32.52H163.498C163.791 34.1733 164.631 35.3333 166.018 36C167.431 36.6667 169.418 37 171.978 37ZM171.258 24.2C169.231 24.2 167.605 24.4933 166.378 25.08C165.151 25.6667 164.298 26.6267 163.818 27.96H178.818C178.311 26.6267 177.431 25.6667 176.178 25.08C174.951 24.4933 173.311 24.2 171.258 24.2ZM215.759 19H225.079L213.799 42.4C212.599 44.88 211.359 46.9067 210.079 48.48C208.825 50.08 207.332 51.2933 205.599 52.12C203.865 52.9733 201.799 53.4 199.399 53.4C198.092 53.4 196.639 53.28 195.039 53.04C193.439 52.8 191.865 52.4533 190.319 52V45C193.892 45.8 196.465 46.2 198.039 46.2C199.185 46.2 200.079 46.1333 200.719 46C201.385 45.8667 201.972 45.5733 202.479 45.12C203.012 44.6667 203.559 43.96 204.119 43H199.799L188.319 19H197.639L206.679 37.88L215.759 19ZM225.095 43V35.8H234.695V43L230.175 51.8H225.895L228.615 43H225.095ZM255.095 14.2H265.095V43H255.095V14.2ZM271.5 11.8H280.7L277.9 27H269.9L271.5 11.8ZM325.625 18.2C328.718 18.2 331.251 19.1467 333.225 21.04C335.225 22.9067 336.225 25.8133 336.225 29.76V43H327.025V31.2C327.025 29.2267 326.585 27.84 325.705 27.04C324.825 26.2133 323.425 25.8 321.505 25.8C319.585 25.8 318.025 26.2267 316.825 27.08C315.651 27.9333 315.065 29.3067 315.065 31.2V43H305.865V31.2C305.865 29.2267 305.425 27.84 304.545 27.04C303.665 26.2133 302.265 25.8 300.345 25.8C298.425 25.8 296.865 26.2267 295.665 27.08C294.491 27.9333 293.905 29.3067 293.905 31.2V43H284.705V19H293.905V23.24C296.651 19.88 300.171 18.2 304.465 18.2C306.731 18.2 308.718 18.7067 310.425 19.72C312.158 20.7067 313.411 22.2533 314.185 24.36C315.598 22.3867 317.238 20.8667 319.105 19.8C320.971 18.7333 323.145 18.2 325.625 18.2Z" />
    </mask>
    <path
        d="M140.167 24.4V25.4H141.167V24.4H140.167ZM140.167 14.2V13.2H139.167V14.2H140.167ZM150.167 14.2H151.167V13.2H150.167V14.2ZM150.167 43V44H151.167V43H150.167ZM140.167 43H139.167V44H140.167V43ZM140.167 32.8H141.167V31.8H140.167V32.8ZM123.767 32.8V31.8H122.767V32.8H123.767ZM123.767 43V44H124.767V43H123.767ZM113.767 43H112.767V44H113.767V43ZM113.767 14.2V13.2H112.767V14.2H113.767ZM123.767 14.2H124.767V13.2H123.767V14.2ZM123.767 24.4H122.767V25.4H123.767V24.4ZM141.167 24.4V14.2H139.167V24.4H141.167ZM140.167 15.2H150.167V13.2H140.167V15.2ZM149.167 14.2V43H151.167V14.2H149.167ZM150.167 42H140.167V44H150.167V42ZM141.167 43V32.8H139.167V43H141.167ZM140.167 31.8H123.767V33.8H140.167V31.8ZM122.767 32.8V43H124.767V32.8H122.767ZM123.767 42H113.767V44H123.767V42ZM114.767 43V14.2H112.767V43H114.767ZM113.767 15.2H123.767V13.2H113.767V15.2ZM122.767 14.2V24.4H124.767V14.2H122.767ZM123.767 25.4H140.167V23.4H123.767V25.4ZM176.818 36.36L177.182 37.2916L177.193 37.2869L176.818 36.36ZM179.138 34.4V33.4H178.52L178.244 33.9528L179.138 34.4ZM188.138 34.4L189.104 34.6582L189.44 33.4H188.138V34.4ZM182.898 41.44L183.41 42.299L183.413 42.2975L182.898 41.44ZM158.778 40.52L158.198 41.3342L158.778 40.52ZM156.338 24L157.134 24.6054L157.138 24.6L156.338 24ZM162.338 19.68L162.689 20.6164L162.698 20.6131L162.338 19.68ZM183.778 21.8L184.398 21.0151L183.778 21.8ZM188.338 32.52V33.52H189.338V32.52H188.338ZM163.498 32.52V31.52H162.305L162.514 32.6947L163.498 32.52ZM166.018 36L165.585 36.9013L165.592 36.9044L166.018 36ZM166.378 25.08L166.81 25.9821L166.378 25.08ZM163.818 27.96L162.877 27.6213L162.395 28.96H163.818V27.96ZM178.818 27.96V28.96H180.268L179.753 27.6048L178.818 27.96ZM176.178 25.08L175.747 25.9822L175.754 25.9857L176.178 25.08ZM171.978 38C174.151 38 175.914 37.7865 177.182 37.2916L176.455 35.4284C175.536 35.7869 174.072 36 171.978 36V38ZM177.193 37.2869C178.477 36.7674 179.47 35.9716 180.033 34.8472L178.244 33.9528C177.953 34.5351 177.399 35.046 176.443 35.4331L177.193 37.2869ZM179.138 35.4H188.138V33.4H179.138V35.4ZM187.172 34.1418C186.41 36.9926 184.82 39.1204 182.384 40.5825L183.413 42.2975C186.309 40.5596 188.213 37.9941 189.104 34.6582L187.172 34.1418ZM182.386 40.581C179.967 42.0229 176.414 42.8 171.618 42.8V44.8C176.582 44.8 180.549 44.0038 183.41 42.299L182.386 40.581ZM171.618 42.8C166.242 42.8 162.194 41.7277 159.359 39.7058L158.198 41.3342C161.495 43.6856 166.008 44.8 171.618 44.8V42.8ZM159.359 39.7058C156.586 37.7285 155.178 34.8761 155.178 31H153.178C153.178 35.4439 154.837 38.9382 158.198 41.3342L159.359 39.7058ZM155.178 31C155.178 28.4076 155.848 26.2969 157.134 24.6054L155.542 23.3946C153.949 25.4898 153.178 28.0457 153.178 31H155.178ZM157.138 24.6C158.448 22.8531 160.282 21.5189 162.689 20.6163L161.987 18.7437C159.274 19.7611 157.108 21.3069 155.538 23.4L157.138 24.6ZM162.698 20.6131C165.12 19.6797 167.967 19.2 171.258 19.2V17.2C167.776 17.2 164.677 17.707 161.978 18.7469L162.698 20.6131ZM171.258 19.2C176.422 19.2 180.35 20.3679 183.158 22.5849L184.398 21.0151C181.126 18.4321 176.707 17.2 171.258 17.2V19.2ZM183.158 22.5849C185.904 24.7525 187.338 28.003 187.338 32.52H189.338C189.338 27.5436 187.732 23.6475 184.398 21.0151L183.158 22.5849ZM188.338 31.52H163.498V33.52H188.338V31.52ZM162.514 32.6947C162.857 34.6311 163.879 36.081 165.585 36.9013L166.451 35.0987C165.384 34.5857 164.726 33.7156 164.483 32.3453L162.514 32.6947ZM165.592 36.9044C167.197 37.6618 169.353 38 171.978 38V36C169.483 36 167.666 35.6716 166.445 35.0956L165.592 36.9044ZM171.258 23.2C169.149 23.2 167.358 23.503 165.947 24.1779L166.81 25.9821C167.852 25.4836 169.314 25.2 171.258 25.2V23.2ZM165.947 24.1779C164.472 24.8832 163.442 26.0521 162.877 27.6213L164.759 28.2987C165.154 27.2013 165.831 26.4501 166.81 25.9821L165.947 24.1779ZM163.818 28.96H178.818V26.96H163.818V28.96ZM179.753 27.6048C179.157 26.0369 178.099 24.8748 176.602 24.1743L175.754 25.9857C176.764 26.4585 177.466 27.2165 177.883 28.3152L179.753 27.6048ZM176.61 24.1779C175.197 23.5024 173.391 23.2 171.258 23.2V25.2C173.231 25.2 174.706 25.4843 175.747 25.9821L176.61 24.1779ZM215.759 19V18H215.13L214.858 18.5666L215.759 19ZM225.079 19L225.98 19.4342L226.671 18H225.079V19ZM213.799 42.4L214.699 42.8356L214.7 42.8342L213.799 42.4ZM210.079 48.48L209.303 47.8489L209.297 47.8561L209.292 47.8633L210.079 48.48ZM205.599 52.12L205.168 51.2173L205.157 51.2228L205.599 52.12ZM195.039 53.04L194.89 54.0289L195.039 53.04ZM190.319 52H189.319V52.749L190.037 52.9596L190.319 52ZM190.319 45L190.537 44.0242L189.319 43.7514V45H190.319ZM200.719 46L200.523 45.0194L200.515 45.021L200.719 46ZM202.479 45.12L201.831 44.3581L201.821 44.3663L201.812 44.3748L202.479 45.12ZM204.119 43L204.983 43.5039L205.86 42H204.119V43ZM199.799 43L198.897 43.4315L199.169 44H199.799V43ZM188.319 19V18H186.732L187.417 19.4315L188.319 19ZM197.639 19L198.541 18.5681L198.269 18H197.639V19ZM206.679 37.88L205.777 38.3119L206.677 40.1914L207.58 38.3134L206.679 37.88ZM215.759 20H225.079V18H215.759V20ZM224.178 18.5658L212.898 41.9658L214.7 42.8342L225.98 19.4342L224.178 18.5658ZM212.899 41.9644C211.721 44.3977 210.52 46.3528 209.303 47.8489L210.854 49.1111C212.197 47.4606 213.476 45.3623 214.699 42.8356L212.899 41.9644ZM209.292 47.8633C208.128 49.349 206.754 50.4611 205.168 51.2174L206.029 53.0226C207.91 52.1256 209.523 50.811 210.866 49.0967L209.292 47.8633ZM205.157 51.2228C203.59 51.9941 201.682 52.4 199.399 52.4V54.4C201.916 54.4 204.14 53.9525 206.04 53.0172L205.157 51.2228ZM199.399 52.4C198.152 52.4 196.749 52.2854 195.187 52.0511L194.89 54.0289C196.528 54.2746 198.032 54.4 199.399 54.4V52.4ZM195.187 52.0511C193.632 51.8178 192.103 51.4809 190.6 51.0404L190.037 52.9596C191.628 53.4258 193.246 53.7822 194.89 54.0289L195.187 52.0511ZM191.319 52V45H189.319V52H191.319ZM190.1 45.9758C193.676 46.7764 196.345 47.2 198.039 47.2V45.2C196.586 45.2 194.108 44.8236 190.537 44.0242L190.1 45.9758ZM198.039 47.2C199.211 47.2 200.184 47.1329 200.923 46.979L200.515 45.021C199.974 45.1337 199.16 45.2 198.039 45.2V47.2ZM200.915 46.9806C201.757 46.8122 202.506 46.4376 203.146 45.8652L201.812 44.3748C201.438 44.709 201.014 44.9211 200.523 45.0194L200.915 46.9806ZM203.126 45.8819C203.781 45.3253 204.395 44.5111 204.983 43.5039L203.255 42.4961C202.723 43.4089 202.243 44.008 201.831 44.3581L203.126 45.8819ZM204.119 42H199.799V44H204.119V42ZM200.701 42.5685L189.221 18.5685L187.417 19.4315L198.897 43.4315L200.701 42.5685ZM188.319 20H197.639V18H188.319V20ZM196.737 19.4319L205.777 38.3119L207.581 37.4481L198.541 18.5681L196.737 19.4319ZM207.58 38.3134L216.66 19.4334L214.858 18.5666L205.778 37.4466L207.58 38.3134ZM225.095 43H224.095V44H225.095V43ZM225.095 35.8V34.8H224.095V35.8H225.095ZM234.695 35.8H235.695V34.8H234.695V35.8ZM234.695 43L235.585 43.4569L235.695 43.2418V43H234.695ZM230.175 51.8V52.8H230.786L231.065 52.2569L230.175 51.8ZM225.895 51.8L224.94 51.5047L224.54 52.8H225.895V51.8ZM228.615 43L229.571 43.2953L229.971 42H228.615V43ZM226.095 43V35.8H224.095V43H226.095ZM225.095 36.8H234.695V34.8H225.095V36.8ZM233.695 35.8V43H235.695V35.8H233.695ZM233.806 42.5431L229.286 51.3431L231.065 52.2569L235.585 43.4569L233.806 42.5431ZM230.175 50.8H225.895V52.8H230.175V50.8ZM226.851 52.0953L229.571 43.2953L227.66 42.7047L224.94 51.5047L226.851 52.0953ZM228.615 42H225.095V44H228.615V42ZM255.095 14.2V13.2H254.095V14.2H255.095ZM265.095 14.2H266.095V13.2H265.095V14.2ZM265.095 43V44H266.095V43H265.095ZM255.095 43H254.095V44H255.095V43ZM255.095 15.2H265.095V13.2H255.095V15.2ZM264.095 14.2V43H266.095V14.2H264.095ZM265.095 42H255.095V44H265.095V42ZM256.095 43V14.2H254.095V43H256.095ZM271.5 11.8V10.8H270.6L270.505 11.6953L271.5 11.8ZM280.7 11.8L281.683 11.9812L281.901 10.8H280.7V11.8ZM277.9 27V28H278.733L278.883 27.1812L277.9 27ZM269.9 27L268.905 26.8953L268.789 28H269.9V27ZM271.5 12.8H280.7V10.8H271.5V12.8ZM279.717 11.6188L276.917 26.8188L278.883 27.1812L281.683 11.9812L279.717 11.6188ZM277.9 26H269.9V28H277.9V26ZM270.895 27.1047L272.495 11.9047L270.505 11.6953L268.905 26.8953L270.895 27.1047ZM333.225 21.04L332.532 21.7617L332.542 21.7711L333.225 21.04ZM336.225 43V44H337.225V43H336.225ZM327.025 43H326.025V44H327.025V43ZM325.705 27.04L325.02 27.7688L325.026 27.7744L325.032 27.7799L325.705 27.04ZM316.825 27.08L316.245 26.265L316.237 26.2713L316.825 27.08ZM315.065 43V44H316.065V43H315.065ZM305.865 43H304.865V44H305.865V43ZM304.545 27.04L303.86 27.7688L303.866 27.7744L303.872 27.7799L304.545 27.04ZM295.665 27.08L295.085 26.265L295.077 26.2713L295.665 27.08ZM293.905 43V44H294.905V43H293.905ZM284.705 43H283.705V44H284.705V43ZM284.705 19V18H283.705V19H284.705ZM293.905 19H294.905V18H293.905V19ZM293.905 23.24H292.905V26.0433L294.679 23.8729L293.905 23.24ZM310.425 19.72L309.914 20.5799L309.922 20.5845L309.93 20.5891L310.425 19.72ZM314.185 24.36L313.246 24.7046L313.897 26.4788L314.998 24.9423L314.185 24.36ZM319.105 19.8L318.609 18.9318L319.105 19.8ZM325.625 19.2C328.497 19.2 330.77 20.0708 332.532 21.7616L333.917 20.3184C331.733 18.2226 328.939 17.2 325.625 17.2V19.2ZM332.542 21.7711C334.264 23.3778 335.225 25.9661 335.225 29.76H337.225C337.225 25.6606 336.186 22.4356 333.907 20.3089L332.542 21.7711ZM335.225 29.76V43H337.225V29.76H335.225ZM336.225 42H327.025V44H336.225V42ZM328.025 43V31.2H326.025V43H328.025ZM328.025 31.2C328.025 29.1235 327.569 27.3833 326.377 26.3001L325.032 27.7799C325.6 28.2967 326.025 29.3298 326.025 31.2H328.025ZM326.389 26.3112C325.241 25.2321 323.536 24.8 321.505 24.8V26.8C323.314 26.8 324.409 27.1946 325.02 27.7688L326.389 26.3112ZM321.505 24.8C319.44 24.8 317.659 25.2595 316.245 26.265L317.404 27.895C318.39 27.1939 319.73 26.8 321.505 26.8V24.8ZM316.237 26.2713C314.728 27.368 314.065 29.094 314.065 31.2H316.065C316.065 29.5194 316.574 28.4986 317.413 27.8887L316.237 26.2713ZM314.065 31.2V43H316.065V31.2H314.065ZM315.065 42H305.865V44H315.065V42ZM306.865 43V31.2H304.865V43H306.865ZM306.865 31.2C306.865 29.1235 306.409 27.3833 305.217 26.3001L303.872 27.7799C304.44 28.2967 304.865 29.3298 304.865 31.2H306.865ZM305.229 26.3111C304.081 25.2321 302.376 24.8 300.345 24.8V26.8C302.154 26.8 303.249 27.1946 303.86 27.7688L305.229 26.3111ZM300.345 24.8C298.28 24.8 296.499 25.2595 295.085 26.265L296.244 27.895C297.23 27.1939 298.57 26.8 300.345 26.8V24.8ZM295.077 26.2713C293.568 27.368 292.905 29.094 292.905 31.2H294.905C294.905 29.5194 295.414 28.4986 296.253 27.8887L295.077 26.2713ZM292.905 31.2V43H294.905V31.2H292.905ZM293.905 42H284.705V44H293.905V42ZM285.705 43V19H283.705V43H285.705ZM284.705 20H293.905V18H284.705V20ZM292.905 19V23.24H294.905V19H292.905ZM294.679 23.8729C297.238 20.7423 300.475 19.2 304.465 19.2V17.2C299.868 17.2 296.065 19.0177 293.13 22.6071L294.679 23.8729ZM304.465 19.2C306.578 19.2 308.383 19.6707 309.914 20.5799L310.935 18.8601C309.053 17.7427 306.885 17.2 304.465 17.2V19.2ZM309.93 20.5891C311.432 21.4442 312.543 22.7902 313.246 24.7046L315.123 24.0154C314.28 21.7165 312.884 19.9692 310.919 18.8509L309.93 20.5891ZM314.998 24.9423C316.338 23.0708 317.874 21.6548 319.601 20.6682L318.609 18.9318C316.602 20.0785 314.858 21.7025 313.372 23.7777L314.998 24.9423ZM319.601 20.6682C321.295 19.7004 323.292 19.2 325.625 19.2V17.2C322.998 17.2 320.648 17.7663 318.609 18.9318L319.601 20.6682Z"
        fill="#FFF3C9" mask="url(#path-2-outside-1_59_7)" />
</svg>