<svg width="49" height="28" viewBox="0 0 69 48" fill="none" xmlns="http://www.w3.org/2000/svg">
    <path
        d="M0.237521 0H8.07573C8.23408 0.0199005 8.31325 0.0995025 8.31325 0.238806V17.1642H16.9531C17.1114 17.1841 17.1906 17.2637 17.1906 17.403V25.2836C17.1906 25.4428 17.1114 25.5224 16.9531 25.5224H8.31325V42.5373C8.31325 42.6965 8.23408 42.7761 8.07573 42.7761H0.237521C0.0791738 42.7761 0 42.6965 0 42.5373V0.238806C0.0197935 0.079602 0.0989673 0 0.237521 0ZM26.9884 0H34.8266C34.9849 0.0199005 35.0641 0.0995025 35.0641 0.238806V42.5373C35.0641 42.6965 34.9849 42.7761 34.8266 42.7761H26.9884C26.83 42.7761 26.7509 42.6965 26.7509 42.5373V0.238806C26.7707 0.079602 26.8498 0 26.9884 0ZM10.0353 1.97015H10.154C10.6885 2.28856 10.9557 2.79602 10.9557 3.49254C11.0546 3.49254 11.6682 4.10945 12.7965 5.34328V5.67164H12.6777C11.9058 4.99502 11.025 4.06965 10.0353 2.89552V1.97015ZM36.6674 1.97015H36.7861C37.3997 2.38806 37.7065 2.89552 37.7065 3.49254C37.8055 3.49254 38.4191 4.10945 39.5473 5.34328V6.14925H39.4286C39.3296 6.14925 38.4092 5.22388 36.6674 3.37313V1.97015ZM10.0353 4.86567H10.154C10.253 4.86567 11.1338 5.76119 12.7965 7.55224V8.92537H12.6777C12.5787 8.92537 11.6979 8.0398 10.0353 6.26866V4.86567ZM36.6674 5.34328H36.7861C36.8851 5.34328 37.8055 6.26866 39.5473 8.1194V9.52239H39.4286C39.3296 9.52239 38.4092 8.58706 36.6674 6.71642V5.34328ZM10.0353 8.1194H10.154C10.253 8.1194 11.1338 9.00497 12.7965 10.7761V12.1791H12.6777C12.5787 12.1791 11.6979 11.2935 10.0353 9.52239V8.1194ZM36.6674 8.59701H36.7861C36.8851 8.59701 37.8055 9.52239 39.5473 11.3731V12.7463H39.4286C39.3296 12.7463 38.4092 11.8209 36.6674 9.97015V8.59701ZM10.0353 11.3731H10.154C10.253 11.3731 11.1338 12.2587 12.7965 14.0299V15.4328H12.6777C12.5787 15.4328 11.6979 14.5373 10.0353 12.7463V11.3731ZM36.6674 11.9403H36.7861C36.8851 11.9403 37.8055 12.8657 39.5473 14.7164V16.1194H39.4286L36.6674 13.2239V11.9403ZM10.0353 14.597H10.154C10.253 14.597 10.5202 14.8756 10.9557 15.4328V15.5522H10.2728C10.1145 15.5522 10.0353 15.4726 10.0353 15.3134V14.597ZM36.6674 15.194H36.7861L39.5473 17.8507V19.2537H39.4286C39.3296 19.2537 38.4092 18.3284 36.6674 16.4776V15.194ZM36.6674 18.4478H36.7861C36.8851 18.4478 37.8055 19.3731 39.5473 21.2239V22.597H39.4286C39.3296 22.597 38.4092 21.6716 36.6674 19.8209V18.4478ZM18.7939 20.1791H18.9126C19.0116 20.1791 19.932 21.1045 21.6738 22.9552V24.3582H21.5551C21.4561 24.3582 20.5357 23.4328 18.7939 21.5821V20.1791ZM36.6674 21.6716H36.7861C36.8851 21.6716 37.8055 22.607 39.5473 24.4776V25.8507H39.4286C39.3296 25.8507 38.4092 24.9254 36.6674 23.0746V21.6716ZM18.7939 23.4328H18.9126C19.0116 23.4328 19.932 24.3582 21.6738 26.209V27.5821H21.5551C20.8227 26.9652 19.9023 26 18.7939 24.6866V23.4328ZM36.6674 25.0448H36.7861C36.8851 25.0448 37.8055 25.9701 39.5473 27.8209V29.2239H39.4286C39.3296 29.2239 38.4092 28.2985 36.6674 26.4478V25.0448ZM18.4376 26.5672H18.5564C18.6751 26.5672 19.7143 27.602 21.6738 29.6716V30.5075C21.6738 30.6468 21.5947 30.7164 21.4363 30.7164H21.2285C21.1295 30.7164 19.932 29.5224 17.636 27.1343C17.7151 27.1343 17.9824 26.9453 18.4376 26.5672ZM11.312 27.1343H12.6777C12.7767 27.1343 13.9346 28.2886 16.1515 30.597V30.7164H14.756C14.6571 30.7164 13.509 29.5622 11.312 27.2537V27.1343ZM14.6373 27.1343H15.6764C16.1317 27.1343 17.3589 28.2886 19.358 30.597V30.7164H18.111C18.012 30.7164 16.8541 29.5622 14.6373 27.2537V27.1343ZM10.0353 27.8209H10.154C10.1936 27.8209 11.114 28.7164 12.9152 30.5075L12.7965 31.0746V31.8806H12.6777C12.5787 31.8806 11.6979 30.995 10.0353 29.2239V27.8209ZM36.6674 28.4179H36.7861C36.8851 28.4179 37.8055 29.3433 39.5473 31.194V32.5672H39.4286L36.6674 29.6716V28.4179ZM10.0353 31.194H10.154C10.253 31.194 11.1338 32.0796 12.7965 33.8507V35.2537H12.6777C12.5787 35.2537 11.6979 34.3582 10.0353 32.5672V31.194ZM36.6674 31.6418H36.7861C36.8851 31.6418 37.8055 32.5771 39.5473 34.4478V35.8209H39.4286C39.3296 35.8209 38.4092 34.8955 36.6674 33.0448V31.6418ZM10.0353 34.5373H10.154C10.253 34.5373 11.1338 35.4328 12.7965 37.2239V38.597H12.6777C12.5787 38.597 11.6979 37.7114 10.0353 35.9403V34.5373ZM36.6674 34.8955H36.7861C36.8851 34.8955 37.8055 35.8209 39.5473 37.6716V39.0746H39.4286C39.3296 39.0746 38.4092 38.1493 36.6674 36.2985V34.8955ZM10.0353 37.791H10.154C11.8959 39.3632 12.7767 40.2189 12.7965 40.3582V41.7313H12.6777C12.5787 41.7313 11.6979 40.8458 10.0353 39.0746V37.791ZM36.6674 38.1493H36.7861C36.8851 38.1493 37.8055 39.0746 39.5473 40.9254V42.3284H39.4286C39.3296 42.3284 38.4092 41.393 36.6674 39.5224V38.1493ZM10.0353 41.0448H10.2728C10.3718 41.0448 11.213 41.8905 12.7965 43.5821V44.9851H12.6777C12.5787 44.9851 11.6979 44.0995 10.0353 42.3284V41.0448ZM36.6674 41.403H36.7861C36.8851 41.403 37.8055 42.3284 39.5473 44.1791V45.5522H39.4286L36.6674 42.7761V41.403ZM9.679 43.8209C9.79776 43.8408 10.8369 44.8856 12.7965 46.9552V47.7612C12.7965 47.9204 12.7173 48 12.5589 48H12.3511C12.2522 48 11.0546 46.806 8.75861 44.4179V44.2985C8.99613 44.2985 9.30293 44.1393 9.679 43.8209ZM36.1923 44.1791L39.5473 47.6418V47.7612C39.5473 47.9204 39.4682 48 39.3098 48H38.5082C37.5383 47.204 36.3507 46.0398 34.9454 44.5075V44.4179C35.0839 44.4179 35.4996 44.3383 36.1923 44.1791ZM2.19707 44.4179H3.56282C3.66179 44.4179 4.81971 45.5721 7.03657 47.8806V48H5.64114C5.54217 48 4.39415 46.8358 2.19707 44.5075V44.4179ZM5.64114 44.4179H7.03657C7.13554 44.4179 8.28356 45.5721 10.4806 47.8806V48H9.11489C9.01592 48 7.858 46.8358 5.64114 44.5075V44.4179ZM28.5917 44.4179H29.8683C29.9673 44.4179 31.1153 45.5721 33.3124 47.8806V48H31.9466C29.71 45.8905 28.5917 44.7264 28.5917 44.5075V44.4179ZM31.8279 44.4179H33.1046C34.7276 45.8507 35.8756 46.9652 36.5486 47.7612V48H35.2719C35.1928 48 34.0448 46.8358 31.8279 44.5075V44.4179Z"
        fill="#FFF2C3" />
    <path
        d="M43.0508 0.179104H64.3089C64.4475 0.199005 64.5168 0.278607 64.5168 0.41791V8.26866C64.5168 8.40796 64.4475 8.47761 64.3089 8.47761H51.0968V42.5672C51.0968 42.7264 51.0176 42.806 50.8593 42.806H43.0508C42.8924 42.806 42.8133 42.7264 42.8133 42.5672V0.41791C42.833 0.258706 42.9122 0.179104 43.0508 0.179104ZM66.1497 3.52239H66.2388C66.3576 3.52239 67.278 4.44776 69 6.29851V7.67164H68.8812C68.7823 7.67164 67.8718 6.75622 66.1497 4.92537V3.52239ZM66.1497 6.74627H66.2388C66.3576 6.74627 67.278 7.67164 69 9.52239V10.9254H68.8812C68.7823 10.9254 67.8718 10 66.1497 8.14925V6.74627ZM65.6747 9.64179C65.7737 9.64179 66.8821 10.7562 69 12.9851V13.4627C69 13.6219 68.9307 13.7015 68.7922 13.7015H68.1984C68.0994 13.7015 66.9514 12.5473 64.7543 10.2388L65.6747 9.64179ZM53.0267 10.1194H53.2642C53.3632 10.1194 54.5112 11.2736 56.7083 13.5821V13.7015H55.9066L55.3425 13.8209L52.8188 11.1343V10.3284C52.8386 10.1891 52.9079 10.1194 53.0267 10.1194ZM55.2238 10.1194H56.5895C56.6885 10.1194 57.8365 11.2736 60.0336 13.5821V13.7015H58.6678C58.5688 13.7015 57.4208 12.5473 55.2238 10.2388V10.1194ZM58.4303 10.1194H59.8257C62.1218 12.3682 63.2698 13.5224 63.2698 13.5821V13.7015H61.8744C61.7952 13.7015 60.6472 12.5473 58.4303 10.2388V10.1194ZM61.6665 10.1194H62.9135C63.0125 10.1194 64.1605 11.2736 66.3576 13.5821V13.7015H65.1106C65.0116 13.7015 63.8636 12.5473 61.6665 10.2388V10.1194ZM52.8188 12.9851H52.9376C54.6003 14.7562 55.4811 15.6418 55.58 15.6418V17.0448H55.4613C55.3425 17.0448 54.4617 16.1592 52.8188 14.3881V12.9851ZM52.8188 16.4776H52.9376C53.0366 16.4776 53.9174 17.3632 55.58 19.1343V20.3881H55.4613C55.3425 20.3881 54.4617 19.5025 52.8188 17.7313V16.4776ZM52.8188 19.5821H52.9376C53.0366 19.5821 53.9174 20.4677 55.58 22.2388V23.6119H55.4613C55.3425 23.6119 54.4617 22.7264 52.8188 20.9552V19.5821ZM52.8188 22.9254H52.9376C53.0366 22.9254 53.9174 23.8109 55.58 25.5821V26.9851H55.4613C55.3425 26.9851 54.4617 26.0995 52.8188 24.3284V22.9254ZM52.8188 26.1791H52.9376C53.0366 26.1791 53.9174 27.0647 55.58 28.8358V30.209H55.4613C55.3425 30.209 54.4617 29.3234 52.8188 27.5522V26.1791ZM52.8188 29.403H52.9376L55.58 32.1791V33.4328H55.4613C55.3425 33.4328 54.4617 32.5473 52.8188 30.7761V29.403ZM52.8188 32.6269H52.9376C53.0366 32.6269 53.9174 33.5124 55.58 35.2836V36.6866H55.4613C55.3425 36.6866 54.4617 35.801 52.8188 34.0299V32.6269ZM52.8188 36H52.9376C53.0366 36 53.9174 36.8856 55.58 38.6567V40.0299H55.4613C55.3425 40.0299 54.4617 39.1443 52.8188 37.3731V36ZM52.8188 39.2239H52.9376C53.0366 39.2239 53.9174 40.1095 55.58 41.8806V43.2537H55.4613C55.3425 43.2537 54.4617 42.3682 52.8188 40.597V39.2239ZM52.8188 42.5672H52.9376C53.0366 42.5672 53.9174 43.4527 55.58 45.2239V46.6269H55.4613C55.3425 46.6269 54.3825 45.6617 52.5813 43.7313C52.7397 43.0348 52.8188 42.6468 52.8188 42.5672ZM44.654 44.4179H45.0103L48.4544 47.8806V48H47.4152C45.7328 46.4677 44.8916 45.5423 44.8916 45.2239C44.8916 44.9453 44.8124 44.7164 44.654 44.5373V44.4179ZM46.8214 44.4179H48.0981C48.1971 44.4179 49.3451 45.5721 51.5422 47.8806V48H50.2952C50.1962 48 49.0383 46.8458 46.8214 44.5373V44.4179ZM50.1764 44.4179H51.5422C51.6807 44.4577 52.7892 45.6119 54.8675 47.8806V48H53.6205C53.5215 48 52.3735 46.8458 50.1764 44.5373V44.4179Z"
        fill="#FFF2C3" />
</svg>